<svg width="1312" height="491" viewBox="0 0 1312 491" fill="none" xmlns="http://www.w3.org/2000/svg">
<path d="M28.75 115.901H287.5M93.4375 115.901V302.776M165.312 115.901V302.776" stroke="#314155" stroke-width="30" stroke-linecap="round" stroke-linejoin="round"/>
<path d="M93.4375 374.651C113.285 374.651 129.375 358.561 129.375 338.713C129.375 318.866 113.285 302.776 93.4375 302.776C73.5898 302.776 57.5 318.866 57.5 338.713C57.5 358.561 73.5898 374.651 93.4375 374.651Z" stroke="#314155" stroke-width="30" stroke-linecap="round" stroke-linejoin="round"/>
<path d="M165.312 374.651C185.16 374.651 201.25 358.561 201.25 338.713C201.25 318.866 185.16 302.776 165.312 302.776C145.465 302.776 129.375 318.866 129.375 338.713C129.375 358.561 145.465 374.651 165.312 374.651Z" stroke="#314155" stroke-width="30" stroke-linecap="round" stroke-linejoin="round"/>
<path d="M280.312 374.651C300.16 374.651 316.25 358.561 316.25 338.713C316.25 318.866 300.16 302.776 280.312 302.776C260.465 302.776 244.375 318.866 244.375 338.713C244.375 358.561 260.465 374.651 280.312 374.651Z" stroke="#9BFF00" stroke-width="30" stroke-linecap="round" stroke-linejoin="round"/>
<path d="M280.312 302.776L244.375 115.901" stroke="#9BFF00" stroke-width="30" stroke-linecap="round" stroke-linejoin="round"/>
<path d="M515.355 296.92C515.355 300.923 514.139 305.202 511.705 309.755C509.35 314.308 505.7 318.665 500.754 322.825C495.887 326.907 489.725 330.204 482.267 332.716C474.81 335.228 466.41 336.484 457.069 336.484C437.208 336.484 421.704 330.714 410.557 319.175C399.41 307.557 393.837 292.014 393.837 272.545C393.837 259.357 396.388 247.7 401.49 237.574C406.593 227.447 413.972 219.636 423.628 214.141C433.283 208.568 444.823 205.781 458.246 205.781C466.567 205.781 474.182 206.998 481.09 209.431C488.077 211.865 493.964 215.005 498.753 218.851C503.62 222.698 507.309 226.819 509.821 231.215C512.412 235.533 513.707 239.575 513.707 243.343C513.707 247.19 512.255 250.448 509.35 253.117C506.524 255.786 503.07 257.12 498.988 257.12C496.319 257.12 494.082 256.453 492.276 255.118C490.549 253.705 488.587 251.468 486.389 248.407C482.464 242.441 478.342 237.966 474.025 234.983C469.786 232 464.369 230.508 457.775 230.508C448.277 230.508 440.623 234.237 434.814 241.695C429.005 249.074 426.1 259.2 426.1 272.074C426.1 278.119 426.846 283.693 428.338 288.795C429.829 293.819 431.988 298.137 434.814 301.748C437.64 305.28 441.055 307.988 445.058 309.872C449.062 311.678 453.458 312.581 458.246 312.581C464.683 312.581 470.178 311.089 474.731 308.106C479.363 305.123 483.445 300.57 486.978 294.447C488.94 290.836 491.06 288.01 493.336 285.969C495.613 283.928 498.399 282.908 501.696 282.908C505.621 282.908 508.879 284.399 511.47 287.382C514.06 290.365 515.355 293.544 515.355 296.92ZM663.839 271.368C663.839 280.945 662.348 289.776 659.365 297.862C656.382 305.947 652.064 312.895 646.412 318.704C640.76 324.513 634.009 328.987 626.159 332.127C618.309 335.189 609.478 336.72 599.665 336.72C589.931 336.72 581.178 335.15 573.407 332.01C565.635 328.87 558.884 324.395 553.153 318.586C547.501 312.698 543.184 305.79 540.201 297.862C537.296 289.855 535.844 281.024 535.844 271.368C535.844 261.634 537.336 252.724 540.319 244.639C543.302 236.553 547.58 229.645 553.153 223.914C558.727 218.184 565.478 213.788 573.407 210.726C581.335 207.586 590.088 206.016 599.665 206.016C609.399 206.016 618.23 207.586 626.159 210.726C634.087 213.866 640.878 218.341 646.53 224.15C652.182 229.959 656.46 236.867 659.365 244.874C662.348 252.881 663.839 261.712 663.839 271.368ZM631.575 271.368C631.575 258.258 628.671 248.053 622.862 240.753C617.131 233.452 609.399 229.802 599.665 229.802C593.385 229.802 587.851 231.45 583.062 234.748C578.274 237.966 574.584 242.755 571.994 249.113C569.403 255.472 568.108 262.89 568.108 271.368C568.108 279.768 569.364 287.107 571.876 293.387C574.466 299.667 578.117 304.495 582.827 307.871C587.615 311.168 593.228 312.816 599.665 312.816C609.399 312.816 617.131 309.166 622.862 301.865C628.671 294.486 631.575 284.321 631.575 271.368ZM796.191 273.723V316.467C796.191 323.218 794.66 328.281 791.599 331.656C788.537 335.032 784.494 336.72 779.47 336.72C774.603 336.72 770.639 335.032 767.578 331.656C764.595 328.281 763.103 323.218 763.103 316.467V265.245C763.103 257.159 762.828 250.879 762.279 246.405C761.729 241.93 760.238 238.28 757.804 235.454C755.371 232.549 751.524 231.097 746.265 231.097C735.746 231.097 728.798 234.708 725.423 241.93C722.126 249.152 720.477 259.514 720.477 273.016V316.467C720.477 323.139 718.946 328.202 715.885 331.656C712.902 335.032 708.938 336.72 703.992 336.72C699.125 336.72 695.122 335.032 691.982 331.656C688.92 328.202 687.389 323.139 687.389 316.467V224.503C687.389 218.459 688.763 213.866 691.511 210.726C694.337 207.586 698.026 206.016 702.579 206.016C706.975 206.016 710.625 207.508 713.53 210.491C716.513 213.395 718.004 217.438 718.004 222.619V225.681C723.578 219.008 729.544 214.102 735.903 210.962C742.261 207.822 749.326 206.252 757.098 206.252C765.183 206.252 772.131 207.861 777.94 211.08C783.749 214.298 788.537 219.165 792.305 225.681C797.722 219.087 803.531 214.22 809.732 211.08C815.934 207.861 822.803 206.252 830.339 206.252C839.131 206.252 846.706 207.979 853.065 211.433C859.423 214.887 864.172 219.832 867.312 226.269C870.06 232.078 871.434 241.224 871.434 253.705V316.467C871.434 323.218 869.903 328.281 866.841 331.656C863.78 335.032 859.737 336.72 854.713 336.72C849.846 336.72 845.843 335.032 842.703 331.656C839.641 328.202 838.11 323.139 838.11 316.467V262.419C838.11 255.511 837.796 249.977 837.168 245.816C836.619 241.656 835.049 238.162 832.458 235.336C829.868 232.51 825.943 231.097 820.683 231.097C816.444 231.097 812.401 232.353 808.555 234.865C804.787 237.377 801.843 240.753 799.723 244.992C797.368 250.408 796.191 259.985 796.191 273.723ZM932.311 224.032V227.918C938.355 220.46 944.635 215.005 951.151 211.551C957.666 208.018 965.046 206.252 973.288 206.252C983.179 206.252 992.285 208.803 1000.61 213.906C1008.93 219.008 1015.48 226.466 1020.27 236.278C1025.14 246.091 1027.57 257.709 1027.57 271.132C1027.57 281.024 1026.16 290.13 1023.33 298.451C1020.58 306.693 1016.78 313.641 1011.91 319.293C1007.04 324.866 1001.27 329.184 994.601 332.245C988.007 335.228 980.903 336.72 973.288 336.72C964.104 336.72 956.371 334.875 950.091 331.185C943.89 327.496 937.963 322.079 932.311 314.936V363.214C932.311 377.344 927.169 384.409 916.885 384.409C910.841 384.409 906.837 382.564 904.875 378.874C902.912 375.263 901.931 369.965 901.931 362.978V224.268C901.931 218.145 903.266 213.592 905.935 210.609C908.604 207.547 912.254 206.016 916.885 206.016C921.439 206.016 925.128 207.586 927.954 210.726C930.859 213.788 932.311 218.223 932.311 224.032ZM995.307 270.779C995.307 262.301 994.012 255.04 991.422 248.995C988.831 242.872 985.22 238.202 980.589 234.983C976.036 231.686 970.972 230.037 965.399 230.037C956.528 230.037 949.031 233.531 942.908 240.517C936.864 247.504 933.842 257.787 933.842 271.368C933.842 284.164 936.864 294.133 942.908 301.277C948.953 308.342 956.45 311.874 965.399 311.874C970.737 311.874 975.682 310.343 980.235 307.282C984.788 304.142 988.439 299.471 991.186 293.27C993.934 287.068 995.307 279.571 995.307 270.779ZM1134.61 318.586C1126.84 324.631 1119.3 329.184 1112 332.245C1104.78 335.228 1096.65 336.72 1087.62 336.72C1079.38 336.72 1072.12 335.11 1065.84 331.892C1059.64 328.595 1054.85 324.16 1051.47 318.586C1048.1 313.012 1046.41 306.968 1046.41 300.452C1046.41 291.66 1049.2 284.164 1054.77 277.962C1060.35 271.76 1068 267.6 1077.73 265.48C1079.77 265.009 1084.84 263.95 1092.92 262.301C1101.01 260.653 1107.92 259.161 1113.65 257.827C1119.46 256.414 1125.74 254.726 1132.49 252.763C1132.09 244.285 1130.37 238.084 1127.31 234.159C1124.32 230.155 1118.08 228.153 1108.58 228.153C1100.42 228.153 1094.26 229.292 1090.1 231.568C1086.01 233.845 1082.48 237.26 1079.5 241.813C1076.59 246.366 1074.51 249.388 1073.26 250.879C1072.08 252.292 1069.49 252.999 1065.49 252.999C1061.88 252.999 1058.74 251.861 1056.07 249.584C1053.48 247.229 1052.18 244.246 1052.18 240.635C1052.18 234.983 1054.18 229.488 1058.19 224.15C1062.19 218.812 1068.43 214.416 1076.91 210.962C1085.39 207.508 1095.95 205.781 1108.58 205.781C1122.71 205.781 1133.82 207.469 1141.91 210.844C1149.99 214.141 1155.68 219.401 1158.98 226.623C1162.36 233.845 1164.04 243.422 1164.04 255.354C1164.04 262.89 1164.01 269.288 1163.93 274.547C1163.93 279.807 1163.89 285.655 1163.81 292.092C1163.81 298.137 1164.79 304.456 1166.75 311.05C1168.79 317.566 1169.81 321.765 1169.81 323.649C1169.81 326.946 1168.24 329.969 1165.1 332.716C1162.04 335.385 1158.55 336.72 1154.62 336.72C1151.33 336.72 1148.07 335.189 1144.85 332.127C1141.63 328.987 1138.22 324.474 1134.61 318.586ZM1132.49 272.074C1127.78 273.802 1120.91 275.646 1111.88 277.609C1102.93 279.493 1096.73 280.906 1093.28 281.848C1089.82 282.711 1086.53 284.478 1083.39 287.147C1080.25 289.737 1078.68 293.387 1078.68 298.097C1078.68 302.964 1080.52 307.125 1084.21 310.579C1087.9 313.955 1092.73 315.642 1098.69 315.642C1105.05 315.642 1110.9 314.269 1116.24 311.521C1121.65 308.695 1125.62 305.084 1128.13 300.688C1131.03 295.821 1132.49 287.814 1132.49 276.667V272.074ZM1113.18 159.858H1129.07C1133.08 159.858 1135.08 160.447 1135.08 161.624C1135.08 162.252 1132.88 164.804 1128.48 169.278C1124.09 173.753 1119.65 178.031 1115.18 182.113C1110.7 186.195 1107.6 188.668 1105.88 189.531C1101.4 191.808 1096.61 192.946 1091.51 192.946C1088.13 192.946 1086.45 191.965 1086.45 190.002C1086.45 188.668 1087.47 186.352 1089.51 183.055L1094.81 173.164C1097.87 167.433 1100.54 163.783 1102.81 162.213C1105.09 160.643 1108.54 159.858 1113.18 159.858ZM1300.28 294.683C1300.28 303.553 1298.12 311.168 1293.81 317.526C1289.49 323.806 1283.09 328.595 1274.61 331.892C1266.21 335.11 1255.97 336.72 1243.88 336.72C1232.34 336.72 1222.45 334.953 1214.21 331.421C1205.96 327.888 1199.88 323.492 1195.95 318.233C1192.03 312.895 1190.07 307.557 1190.07 302.219C1190.07 298.686 1191.32 295.664 1193.84 293.152C1196.35 290.64 1199.53 289.384 1203.37 289.384C1206.75 289.384 1209.34 290.208 1211.14 291.857C1212.95 293.505 1214.68 295.821 1216.33 298.804C1219.62 304.534 1223.55 308.813 1228.1 311.639C1232.73 314.465 1239.01 315.878 1246.94 315.878C1253.38 315.878 1258.64 314.465 1262.72 311.639C1266.88 308.734 1268.96 305.437 1268.96 301.748C1268.96 296.096 1266.8 291.974 1262.48 289.384C1258.24 286.793 1251.22 284.321 1241.41 281.966C1230.34 279.218 1221.31 276.353 1214.32 273.37C1207.42 270.308 1201.88 266.305 1197.72 261.359C1193.56 256.414 1191.48 250.33 1191.48 243.108C1191.48 236.671 1193.4 230.587 1197.25 224.856C1201.1 219.126 1206.75 214.573 1214.21 211.197C1221.74 207.743 1230.81 206.016 1241.41 206.016C1249.73 206.016 1257.19 206.88 1263.78 208.607C1270.45 210.334 1275.99 212.65 1280.38 215.554C1284.86 218.459 1288.23 221.677 1290.51 225.21C1292.86 228.742 1294.04 232.196 1294.04 235.572C1294.04 239.261 1292.79 242.284 1290.27 244.639C1287.84 246.994 1284.35 248.171 1279.79 248.171C1276.5 248.171 1273.67 247.229 1271.32 245.345C1269.04 243.461 1266.41 240.635 1263.43 236.867C1260.99 233.727 1258.13 231.215 1254.83 229.331C1251.53 227.447 1247.06 226.505 1241.41 226.505C1235.6 226.505 1230.77 227.761 1226.92 230.273C1223.08 232.706 1221.15 235.768 1221.15 239.458C1221.15 242.833 1222.57 245.62 1225.39 247.818C1228.22 249.937 1232.03 251.704 1236.81 253.117C1241.6 254.53 1248.2 256.257 1256.6 258.298C1266.57 260.731 1274.69 263.636 1280.97 267.011C1287.33 270.387 1292.12 274.39 1295.34 279.022C1298.63 283.575 1300.28 288.795 1300.28 294.683Z" fill="#18181B"/>
</svg>
